<svg width="35" height="35" viewBox="0 0 24 24" fill="none" xmlns="http://www.w3.org/2000/svg"><path fill-rule="evenodd" clip-rule="evenodd" d="M14.848 0.559141C14.9191 0.275125 14.7039 0 14.4106 0H9.2254C8.93212 0 8.71694 0.275125 8.78806 0.559141L10.2475 6.38661C10.5489 7.58996 10.6174 8.83967 10.4496 10.0687L8.61626 23.4892C8.57936 23.7594 8.78975 24 9.06292 24H14.5731C14.8463 24 15.0567 23.7594 15.0198 23.4892L13.1865 10.0687C13.0186 8.83967 13.0872 7.58996 13.3885 6.38661L14.848 0.559141ZM17.7308 24C17.5142 24 17.3282 23.8462 17.2879 23.6338L14.6753 9.86601C14.5333 8.82608 14.5913 7.76863 14.8463 6.75041L17.1807 0.297163C17.2452 0.118836 17.4148 0 17.6047 0H22.954C23.3225 0 23.5353 0.417242 23.3186 0.714678L19.0255 6.60739C18.2789 7.63214 18.1012 8.96393 18.5531 10.148L23.6064 23.3898C23.7188 23.6843 23.5009 24 23.1852 24H17.7308ZM0.317763 0.714677C0.101066 0.417241 0.31391 0 0.682335 0H6.03133C6.22126 0 6.39082 0.118836 6.45533 0.297163L8.78972 6.75041C9.04472 7.76863 9.10275 8.82608 8.96069 9.86601L6.34812 23.6338C6.30781 23.8462 6.12182 24 5.90521 24H0.451208C0.135465 24 -0.0824541 23.6843 0.029949 23.3898L5.08331 10.148C5.53518 8.96393 5.35749 7.63214 4.61091 6.60739L0.317763 0.714677Z" fill="white"></path></svg>